<?xml version="1.0" standalone="no"?>
<!DOCTYPE svg PUBLIC "-//W3C//DTD SVG 20010904//EN"
 "http://www.w3.org/TR/2001/REC-SVG-20010904/DTD/svg10.dtd">
<svg version="1.0" xmlns="http://www.w3.org/2000/svg"
 width="250.000000pt" height="250.000000pt" viewBox="0 0 250.000000 250.000000"
 preserveAspectRatio="xMidYMid meet">
<metadata>
Created by potrace 1.14, written by Peter Selinger 2001-2017
</metadata>
<g transform="translate(0.000000,250.000000) scale(0.100000,-0.100000)"
fill="#000000" stroke="none">
<path d="M1053 2484 c-172 -27 -346 -96 -498 -195 -103 -68 -276 -241 -344
-344 -282 -431 -280 -964 6 -1399 60 -91 237 -268 328 -328 316 -208 676 -268
1038 -172 118 31 309 125 413 203 482 360 640 1019 373 1555 -66 132 -126 214
-238 327 -185 184 -383 291 -636 344 -111 24 -327 28 -442 9z m448 -63 c449
-100 796 -436 910 -879 111 -436 -40 -909 -384 -1202 -451 -384 -1111 -382
-1558 4 -198 171 -331 395 -391 660 -28 123 -30 353 -4 476 54 252 162 448
344 622 202 193 443 309 712 342 71 9 287 -5 371 -23z"/>
<path d="M1076 2420 c-107 -17 -180 -40 -197 -61 -45 -59 -259 -476 -259 -504
0 -3 14 -5 31 -5 22 0 65 25 167 99 234 169 490 314 699 397 40 16 73 32 73
35 0 4 -39 14 -87 24 -104 19 -343 28 -427 15z"/>
<path d="M1525 2331 c-119 -50 -278 -130 -395 -200 l-94 -56 289 -6 c310 -6
442 -19 699 -69 83 -16 151 -28 153 -26 2 2 -20 33 -50 68 -105 123 -266 235
-429 298 -43 17 -79 30 -80 29 -2 0 -43 -17 -93 -38z"/>
<path d="M764 2321 c-148 -70 -305 -190 -415 -316 -53 -61 -55 -66 -50 -107
l6 -43 145 -3 145 -2 60 127 c56 119 151 297 190 357 10 14 13 26 9 26 -5 0
-45 -18 -90 -39z"/>
<path d="M1636 1988 c44 -30 106 -74 137 -97 l57 -41 220 2 220 3 -30 45 c-29
44 -32 45 -112 62 -168 35 -376 67 -473 73 l-100 7 81 -54z"/>
<path d="M256 1885 c-21 -31 -20 -35 4 -35 16 0 20 7 20 30 0 36 -3 37 -24 5z"/>
<path d="M260 1444 l0 -246 168 4 c155 3 170 5 211 28 25 14 54 40 64 58 22
38 33 160 22 248 -6 49 -13 64 -44 95 -50 50 -90 59 -268 59 l-153 0 0 -246z
m328 149 c26 -19 27 -24 30 -129 2 -60 0 -119 -3 -131 -9 -38 -54 -53 -160
-53 l-95 0 0 163 c0 90 3 167 7 170 3 4 49 5 100 3 75 -3 100 -7 121 -23z"/>
<path d="M833 1669 c-48 -24 -73 -67 -73 -129 0 -100 51 -132 220 -138 63 -2
121 -9 128 -14 17 -15 15 -74 -4 -92 -13 -13 -44 -16 -180 -16 l-164 0 0 -41
0 -41 188 4 c204 3 222 8 259 64 24 37 22 117 -3 152 -34 45 -69 56 -194 60
-127 4 -150 14 -150 62 0 15 9 38 19 51 19 23 24 24 183 26 l163 3 3 35 3 35
-178 0 c-160 0 -182 -2 -220 -21z"/>
<path d="M1260 1445 l0 -245 233 2 232 3 3 38 3 37 -185 0 -186 0 0 205 0 205
-50 0 -50 0 0 -245z"/>
<path d="M1760 1445 l0 -245 50 0 50 0 0 70 0 70 56 0 c54 0 59 -2 146 -70 84
-65 94 -70 139 -70 72 0 67 26 -16 87 -69 51 -77 63 -44 63 11 0 34 13 50 29
28 29 29 32 29 133 0 169 -15 178 -280 178 l-180 0 0 -245z m348 162 c16 -11
17 -158 0 -175 -8 -8 -52 -12 -130 -12 l-118 0 0 93 c0 52 3 97 6 100 10 9
226 4 242 -6z"/>
<path d="M260 970 l0 -171 67 3 c55 2 68 6 71 21 3 15 -5 17 -57 17 l-61 0 0
150 c0 93 -4 150 -10 150 -6 0 -10 -63 -10 -170z"/>
<path d="M462 973 l3 -168 68 -3 c62 -3 67 -1 67 18 0 18 -6 20 -60 20 l-60 0
0 60 0 60 50 0 c43 0 50 3 50 20 0 17 -7 20 -50 20 l-50 0 0 55 0 55 60 0 c47
0 60 3 60 15 0 12 -14 15 -70 15 l-70 0 2 -167z"/>
<path d="M679 1124 c-17 -21 -19 -138 -2 -155 7 -7 31 -15 54 -18 34 -5 44
-11 51 -32 5 -16 5 -37 -1 -52 -10 -25 -15 -27 -66 -27 -48 0 -56 -3 -53 -17
5 -27 87 -30 118 -5 19 15 23 28 23 75 0 67 -14 87 -59 87 -41 0 -64 22 -64
64 0 48 18 65 74 68 28 2 51 8 54 16 6 20 -112 16 -129 -4z"/>
<path d="M879 1118 c-7 -12 -12 -46 -13 -74 -1 -67 21 -94 74 -94 41 0 50 -11
50 -58 0 -42 -11 -51 -70 -54 -41 -2 -55 -7 -55 -18 0 -21 112 -21 125 0 18
28 23 82 11 121 -11 37 -14 39 -51 39 -53 0 -78 34 -64 88 9 37 9 37 67 40 42
2 57 7 57 17 0 12 -14 15 -60 15 -51 0 -61 -3 -71 -22z"/>
<path d="M1082 1128 c-8 -8 -12 -57 -12 -154 0 -136 1 -144 22 -158 31 -22 74
-20 98 4 18 18 20 33 20 151 0 72 -5 139 -10 150 -8 15 -21 19 -58 19 -27 0
-53 -5 -60 -12z m103 -153 l0 -130 -45 0 -45 0 -3 119 c-1 66 0 126 3 133 3
10 18 13 47 11 l43 -3 0 -130z"/>
<path d="M1270 969 c0 -202 18 -225 22 -29 l3 125 44 -118 c68 -182 70 -181
71 21 0 203 -18 240 -22 45 l-3 -128 -46 125 c-25 68 -51 126 -58 128 -8 3
-11 -44 -11 -169z"/>
<path d="M1491 1126 c-18 -22 -25 -102 -11 -136 12 -29 25 -36 79 -42 30 -4
46 -44 32 -81 -10 -25 -15 -27 -66 -27 -48 0 -56 -3 -53 -17 5 -27 87 -30 118
-5 19 15 23 28 23 75 0 67 -14 87 -59 87 -41 0 -64 22 -64 64 0 48 18 65 74
68 28 2 51 8 54 16 5 18 -112 17 -127 -2z"/>
<path d="M1689 1124 c-18 -22 -25 -223 -10 -275 9 -29 18 -39 40 -44 57 -12
101 17 101 66 0 17 -19 9 -25 -11 -9 -28 -80 -29 -95 -1 -14 28 -13 224 2 239
7 7 29 12 49 12 29 0 39 -5 44 -20 7 -22 25 -27 25 -7 0 7 -7 23 -16 35 -19
28 -94 31 -115 6z"/>
<path d="M1892 1128 c-8 -8 -12 -57 -12 -154 0 -136 1 -144 22 -158 31 -22 74
-20 98 4 18 18 20 33 20 151 0 72 -5 139 -10 150 -8 15 -21 19 -58 19 -27 0
-53 -5 -60 -12z m103 -153 l0 -130 -45 0 -45 0 -3 119 c-1 66 0 126 3 133 3
10 18 13 47 11 l43 -3 0 -130z"/>
<path d="M2060 969 c0 -111 3 -168 10 -164 6 3 10 55 11 118 l1 112 28 -109
c16 -59 33 -113 38 -118 11 -11 12 -9 51 145 10 43 22 81 25 85 3 3 6 -50 6
-117 0 -79 4 -120 10 -116 6 4 10 72 10 171 0 213 -13 218 -60 24 -19 -77 -37
-137 -41 -133 -3 5 -21 68 -39 141 -18 72 -36 132 -41 132 -5 0 -9 -77 -9
-171z"/>
<path d="M1636 843 c-12 -12 -6 -33 9 -33 8 0 15 6 15 14 0 17 -14 28 -24 19z"/>
<path d="M261 603 c18 -27 33 -49 33 -50 7 -11 407 -78 591 -99 l60 -7 -100
73 c-55 40 -116 86 -135 101 l-35 29 -223 0 -223 0 32 -47z"/>
<path d="M1769 602 c-190 -144 -394 -266 -663 -398 l-190 -92 58 -12 c164 -34
304 -39 456 -15 175 26 177 28 238 130 67 114 212 401 212 421 0 28 -48 13
-111 -34z"/>
<path d="M1888 598 c-39 -91 -154 -320 -196 -388 -22 -36 -39 -66 -37 -68 6
-7 117 44 189 86 174 104 366 291 366 359 0 64 2 63 -156 63 l-143 0 -23 -52z"/>
<path d="M2220 633 c0 -38 16 -43 34 -13 l17 30 -25 0 c-18 0 -26 -5 -26 -17z"/>
<path d="M325 519 c24 -41 117 -137 185 -192 88 -70 189 -129 302 -176 l78
-31 194 94 c184 89 376 194 376 207 0 3 -60 4 -133 1 -161 -5 -443 11 -628 38
-124 17 -318 53 -363 66 -14 5 -16 3 -11 -7z"/>
</g>
</svg>
